name Walk7.mot
datacolumns 19
datarows 10
range 2.18100000 2.19000000
endheader

                time	   L_ground_force_vx	   L_ground_force_vy	   L_ground_force_vz	   L_ground_force_px	   L_ground_force_py	   L_ground_force_pz	   R_ground_force_vx	   R_ground_force_vy	   R_ground_force_vz	   R_ground_force_px	   R_ground_force_py	   R_ground_force_pz	   L_ground_torque_x	   L_ground_torque_y	   L_ground_torque_z	   R_ground_torque_x	   R_ground_torque_y	   R_ground_torque_z	
          2.18100000	         34.22126385	        133.69011789	         13.18187768	          0.17981947	          0.00000000	          0.06430228	          0.00000000	          0.00000000	          0.00000000	          0.00000000	          0.00000000	          0.00000000	          0.00000000	        -10.12275643	          0.00000000	          0.00000000	          0.00000000	          0.00000000	
          2.18200000	         32.00145649	        124.43480379	         12.73406807	          0.18024872	          0.00000000	          0.06492502	          0.00000000	          0.00000000	          0.00000000	          0.00000000	          0.00000000	          0.00000000	          0.00000000	         -9.67285346	          0.00000000	          0.00000000	          0.00000000	          0.00000000	
          2.18300000	         29.80875460	        115.86171027	         12.25634949	          0.18063857	          0.00000000	          0.06545097	          0.00000000	          0.00000000	          0.00000000	          0.00000000	          0.00000000	          0.00000000	          0.00000000	         -9.22551748	          0.00000000	          0.00000000	          0.00000000	          0.00000000	
          2.18400000	         27.63821677	        107.95512513	         11.72762652	          0.18125398	          0.00000000	          0.06578447	          0.00000000	          0.00000000	          0.00000000	          0.00000000	          0.00000000	          0.00000000	          0.00000000	         -8.76508548	          0.00000000	          0.00000000	          0.00000000	          0.00000000	
          2.18500000	         25.47702888	        100.70371836	         11.14807651	          0.18235157	          0.00000000	          0.06589965	          0.00000000	          0.00000000	          0.00000000	          0.00000000	          0.00000000	          0.00000000	          0.00000000	         -8.28401137	          0.00000000	          0.00000000	          0.00000000	          0.00000000	
          2.18600000	         23.31868674	         94.04933670	         10.52314700	          0.18388513	          0.00000000	          0.06574924	          0.00000000	          0.00000000	          0.00000000	          0.00000000	          0.00000000	          0.00000000	          0.00000000	         -7.78130725	          0.00000000	          0.00000000	          0.00000000	          0.00000000	
          2.18700000	         21.17634451	         87.88385707	          9.85376719	          0.18543190	          0.00000000	          0.06535918	          0.00000000	          0.00000000	          0.00000000	          0.00000000	          0.00000000	          0.00000000	          0.00000000	         -7.26430587	          0.00000000	          0.00000000	          0.00000000	          0.00000000	
          2.18800000	         19.06604748	         82.12031850	          9.15187210	          0.18650279	          0.00000000	          0.06495772	          0.00000000	          0.00000000	          0.00000000	          0.00000000	          0.00000000	          0.00000000	          0.00000000	         -6.74924278	          0.00000000	          0.00000000	          0.00000000	          0.00000000	
          2.18900000	         16.98460290	         76.74306611	          8.43354457	          0.18693173	          0.00000000	          0.06486541	          0.00000000	          0.00000000	          0.00000000	          0.00000000	          0.00000000	          0.00000000	          0.00000000	         -6.24832414	          0.00000000	          0.00000000	          0.00000000	          0.00000000	
          2.19000000	         14.92097375	         71.77113271	          7.70015805	          0.18695107	          0.00000000	          0.06523843	          0.00000000	          0.00000000	          0.00000000	          0.00000000	          0.00000000	          0.00000000	          0.00000000	         -5.75949851	          0.00000000	          0.00000000	          0.00000000	          0.00000000	
